<?xml version="1.0" standalone="no"?>
<!DOCTYPE svg PUBLIC "-//W3C//DTD SVG 20010904//EN"
 "http://www.w3.org/TR/2001/REC-SVG-20010904/DTD/svg10.dtd">
<svg version="1.0" xmlns="http://www.w3.org/2000/svg"
 width="194.000000pt" height="260.000000pt" viewBox="0 0 194.000000 260.000000"
 preserveAspectRatio="xMidYMid meet">

<g transform="translate(0.000000,260.000000) scale(0.100000,-0.100000)"
fill="#000000" stroke="none">
<path d="M264 2589 c-105 -20 -185 -83 -229 -180 -24 -55 -27 -71 -23 -138 8
-123 62 -207 171 -263 58 -30 168 -36 236 -13 69 22 151 99 182 167 27 61 32
169 10 231 -45 131 -208 223 -347 196z"/>
<path d="M1148 2035 c-248 -315 -457 -592 -476 -627 -18 -35 -36 -88 -40 -118
-5 -43 -8 -18 -12 110 -5 155 -7 168 -33 222 -53 109 -143 163 -272 163 -67 0
-88 -5 -131 -27 -28 -15 -70 -48 -92 -73 -75 -85 -72 -46 -72 -912 l0 -773
123 0 c143 0 234 13 289 41 61 31 121 92 154 156 l29 58 5 485 c3 272 8 461
12 430 13 -92 57 -162 215 -341 82 -92 278 -315 438 -496 l289 -329 58 8 c32
4 77 17 100 29 62 32 135 105 165 168 24 49 28 68 28 151 0 139 -14 163 -235
405 -101 110 -242 266 -315 346 l-133 145 315 400 c173 219 326 422 341 449
24 44 27 61 27 145 0 77 -4 104 -22 142 -47 103 -161 187 -270 201 l-42 5
-443 -563z"/>
</g>
</svg>
